<mxfile host="Electron" modified="2024-03-06T07:46:08.123Z" agent="Mozilla/5.0 (X11; Linux x86_64) AppleWebKit/537.36 (KHTML, like Gecko) draw.io/22.1.21 Chrome/120.0.6099.291 Electron/28.2.5 Safari/537.36" etag="nAGhhope1lYvJNruBdGZ" version="22.1.21" type="device">
  <diagram id="C5RBs43oDa-KdzZeNtuy" name="Page-1">
    <mxGraphModel dx="1434" dy="999" grid="0" gridSize="10" guides="1" tooltips="1" connect="1" arrows="1" fold="1" page="1" pageScale="1" pageWidth="1169" pageHeight="827" math="0" shadow="0">
      <root>
        <mxCell id="WIyWlLk6GJQsqaUBKTNV-0" />
        <mxCell id="WIyWlLk6GJQsqaUBKTNV-1" parent="WIyWlLk6GJQsqaUBKTNV-0" />
        <mxCell id="uKcMFkma33SuD5zO_-8G-0" value="MCD Site de recherche d&#39;appart" style="text;html=1;align=center;verticalAlign=middle;resizable=0;points=[];autosize=1;strokeColor=none;fillColor=none;shadow=0;" parent="WIyWlLk6GJQsqaUBKTNV-1" vertex="1">
          <mxGeometry x="326" y="18" width="190" height="30" as="geometry" />
        </mxCell>
        <mxCell id="zkfFHV4jXpPFQw0GAbJ--13" value="Address" style="swimlane;fontStyle=0;align=center;verticalAlign=top;childLayout=stackLayout;horizontal=1;startSize=26;horizontalStack=0;resizeParent=1;resizeLast=0;collapsible=1;marginBottom=0;rounded=0;shadow=0;strokeWidth=1;fontSize=10;container=0;" parent="WIyWlLk6GJQsqaUBKTNV-1" vertex="1">
          <mxGeometry x="550.91" y="222.88" width="131.02" height="91.12" as="geometry">
            <mxRectangle x="340" y="380" width="170" height="26" as="alternateBounds" />
          </mxGeometry>
        </mxCell>
        <mxCell id="zkfFHV4jXpPFQw0GAbJ--17" value="Landlord" style="swimlane;fontStyle=0;align=center;verticalAlign=top;childLayout=stackLayout;horizontal=1;startSize=26;horizontalStack=0;resizeParent=1;resizeLast=0;collapsible=1;marginBottom=0;rounded=0;shadow=0;strokeWidth=1;fontSize=10;container=0;" parent="WIyWlLk6GJQsqaUBKTNV-1" vertex="1">
          <mxGeometry x="819.4934415990006" y="203.08321377331418" width="131.01811367895067" height="149.54662840746056" as="geometry">
            <mxRectangle x="550" y="140" width="160" height="26" as="alternateBounds" />
          </mxGeometry>
        </mxCell>
        <mxCell id="oFJWuJIvr5pNURfF1LZ2-2" style="rounded=0;orthogonalLoop=1;jettySize=auto;html=1;entryX=0;entryY=0.5;entryDx=0;entryDy=0;endArrow=none;endFill=0;exitX=1;exitY=0.5;exitDx=0;exitDy=0;shadow=0;fontSize=10;" parent="WIyWlLk6GJQsqaUBKTNV-1" source="zkfFHV4jXpPFQw0GAbJ--1" target="oFJWuJIvr5pNURfF1LZ2-15" edge="1">
          <mxGeometry relative="1" as="geometry" />
        </mxCell>
        <mxCell id="vCiIIB5CHr5Q8YI4RMUH-0" value="1,1" style="edgeLabel;html=1;align=center;verticalAlign=middle;resizable=0;points=[];shadow=0;fontSize=10;container=0;" parent="oFJWuJIvr5pNURfF1LZ2-2" vertex="1" connectable="0">
          <mxGeometry x="-0.6571" relative="1" as="geometry">
            <mxPoint as="offset" />
          </mxGeometry>
        </mxCell>
        <mxCell id="uKcMFkma33SuD5zO_-8G-18" style="edgeStyle=none;shape=connector;rounded=0;orthogonalLoop=1;jettySize=auto;html=1;entryX=0;entryY=0.5;entryDx=0;entryDy=0;labelBackgroundColor=default;strokeColor=default;align=center;verticalAlign=middle;fontFamily=Helvetica;fontSize=10;fontColor=default;endArrow=none;endFill=0;exitX=1;exitY=0.5;exitDx=0;exitDy=0;shadow=0;" parent="WIyWlLk6GJQsqaUBKTNV-1" edge="1">
          <mxGeometry relative="1" as="geometry">
            <mxPoint x="518.9706433479075" y="253.7690100430416" as="sourcePoint" />
            <mxPoint x="551.7251717676452" y="253.7690100430416" as="targetPoint" />
          </mxGeometry>
        </mxCell>
        <mxCell id="vCiIIB5CHr5Q8YI4RMUH-12" value="1,n" style="edgeLabel;html=1;align=center;verticalAlign=middle;resizable=0;points=[];shadow=0;fontSize=10;container=0;" parent="uKcMFkma33SuD5zO_-8G-18" vertex="1" connectable="0">
          <mxGeometry x="0.0783" y="3" relative="1" as="geometry">
            <mxPoint as="offset" />
          </mxGeometry>
        </mxCell>
        <mxCell id="oFJWuJIvr5pNURfF1LZ2-5" value="&lt;p style=&quot;margin: 4px 0px 0px; text-align: center; font-size: 10px;&quot;&gt;Located&lt;/p&gt;&lt;p style=&quot;margin: 4px 0px 0px; text-align: center; font-size: 10px;&quot;&gt;---&lt;/p&gt;&lt;p style=&quot;margin: 4px 0px 0px; text-align: center; font-size: 10px;&quot;&gt;&lt;br style=&quot;font-size: 10px;&quot;&gt;&lt;/p&gt;" style="verticalAlign=top;align=left;overflow=fill;fontSize=10;fontFamily=Helvetica;html=1;whiteSpace=wrap;rounded=1;arcSize=50;shadow=0;container=0;" parent="WIyWlLk6GJQsqaUBKTNV-1" vertex="1">
          <mxGeometry x="460.83135540287316" y="233.96987087517934" width="57.32042473454091" height="39.59827833572453" as="geometry" />
        </mxCell>
        <mxCell id="oFJWuJIvr5pNURfF1LZ2-29" value="" style="shape=connector;rounded=0;orthogonalLoop=1;jettySize=auto;html=1;entryX=-0.016;entryY=0.19;entryDx=0;entryDy=0;entryPerimeter=0;labelBackgroundColor=default;strokeColor=default;fontFamily=Helvetica;fontSize=10;fontColor=default;endArrow=none;endFill=0;shadow=0;" parent="WIyWlLk6GJQsqaUBKTNV-1" source="oFJWuJIvr5pNURfF1LZ2-15" target="zkfFHV4jXpPFQw0GAbJ--17" edge="1">
          <mxGeometry x="0.8434" relative="1" as="geometry">
            <mxPoint as="offset" />
          </mxGeometry>
        </mxCell>
        <mxCell id="vCiIIB5CHr5Q8YI4RMUH-2" value="1,n" style="edgeLabel;html=1;align=center;verticalAlign=middle;resizable=0;points=[];shadow=0;fontSize=10;container=0;" parent="oFJWuJIvr5pNURfF1LZ2-29" vertex="1" connectable="0">
          <mxGeometry x="0.77" y="1" relative="1" as="geometry">
            <mxPoint as="offset" />
          </mxGeometry>
        </mxCell>
        <mxCell id="oFJWuJIvr5pNURfF1LZ2-15" value="&lt;p style=&quot;margin: 4px 0px 0px; text-align: center; font-size: 10px;&quot;&gt;proposed_by&lt;/p&gt;&lt;p style=&quot;margin: 4px 0px 0px; text-align: center; font-size: 10px;&quot;&gt;---&lt;/p&gt;&lt;p style=&quot;margin: 4px 0px 0px; text-align: center; font-size: 10px;&quot;&gt;Date&lt;/p&gt;" style="verticalAlign=top;align=left;overflow=fill;fontSize=10;fontFamily=Helvetica;html=1;whiteSpace=wrap;rounded=1;arcSize=50;shadow=0;container=0;" parent="WIyWlLk6GJQsqaUBKTNV-1" vertex="1">
          <mxGeometry x="590.211742660837" y="93" width="86.79950031230481" height="47.51793400286944" as="geometry" />
        </mxCell>
        <mxCell id="uKcMFkma33SuD5zO_-8G-16" style="rounded=0;orthogonalLoop=1;jettySize=auto;html=1;entryX=0;entryY=0.5;entryDx=0;entryDy=0;exitX=1;exitY=0.5;exitDx=0;exitDy=0;endArrow=none;endFill=0;shadow=0;fontSize=10;" parent="WIyWlLk6GJQsqaUBKTNV-1" source="zkfFHV4jXpPFQw0GAbJ--2" target="oFJWuJIvr5pNURfF1LZ2-5" edge="1">
          <mxGeometry relative="1" as="geometry" />
        </mxCell>
        <mxCell id="vCiIIB5CHr5Q8YI4RMUH-4" value="1,1" style="edgeLabel;html=1;align=center;verticalAlign=middle;resizable=0;points=[];shadow=0;fontSize=10;container=0;" parent="uKcMFkma33SuD5zO_-8G-16" vertex="1" connectable="0">
          <mxGeometry x="-0.288" relative="1" as="geometry">
            <mxPoint as="offset" />
          </mxGeometry>
        </mxCell>
        <mxCell id="uKcMFkma33SuD5zO_-8G-21" style="edgeStyle=none;shape=connector;rounded=0;orthogonalLoop=1;jettySize=auto;html=1;exitX=0;exitY=0.5;exitDx=0;exitDy=0;entryX=1;entryY=0.5;entryDx=0;entryDy=0;labelBackgroundColor=default;strokeColor=default;align=center;verticalAlign=middle;fontFamily=Helvetica;fontSize=10;fontColor=default;endArrow=none;endFill=0;shadow=0;" parent="WIyWlLk6GJQsqaUBKTNV-1" source="uKcMFkma33SuD5zO_-8G-19" target="zkfFHV4jXpPFQw0GAbJ--14" edge="1">
          <mxGeometry relative="1" as="geometry" />
        </mxCell>
        <mxCell id="vCiIIB5CHr5Q8YI4RMUH-11" value="1,n" style="edgeLabel;html=1;align=center;verticalAlign=middle;resizable=0;points=[];shadow=0;fontSize=10;container=0;" parent="uKcMFkma33SuD5zO_-8G-21" vertex="1" connectable="0">
          <mxGeometry x="0.5484" y="1" relative="1" as="geometry">
            <mxPoint y="1" as="offset" />
          </mxGeometry>
        </mxCell>
        <mxCell id="uKcMFkma33SuD5zO_-8G-19" value="&lt;p style=&quot;margin: 4px 0px 0px; text-align: center; font-size: 10px;&quot;&gt;Lives&lt;/p&gt;&lt;p style=&quot;margin: 4px 0px 0px; text-align: center; font-size: 10px;&quot;&gt;---&lt;/p&gt;" style="verticalAlign=top;align=left;overflow=fill;fontSize=10;fontFamily=Helvetica;html=1;whiteSpace=wrap;rounded=1;arcSize=50;shadow=0;container=0;" parent="WIyWlLk6GJQsqaUBKTNV-1" vertex="1">
          <mxGeometry x="720.4109931292941" y="244.2654232424677" width="57.32042473454091" height="39.59827833572453" as="geometry" />
        </mxCell>
        <mxCell id="uKcMFkma33SuD5zO_-8G-20" style="edgeStyle=none;shape=connector;rounded=0;orthogonalLoop=1;jettySize=auto;html=1;exitX=0;exitY=0.5;exitDx=0;exitDy=0;entryX=1;entryY=0.5;entryDx=0;entryDy=0;labelBackgroundColor=default;strokeColor=default;align=center;verticalAlign=middle;fontFamily=Helvetica;fontSize=10;fontColor=default;endArrow=none;endFill=0;shadow=0;" parent="WIyWlLk6GJQsqaUBKTNV-1" source="uKcMFkma33SuD5zO_-8G-13" target="uKcMFkma33SuD5zO_-8G-19" edge="1">
          <mxGeometry relative="1" as="geometry" />
        </mxCell>
        <mxCell id="vCiIIB5CHr5Q8YI4RMUH-3" value="1,1" style="edgeLabel;html=1;align=center;verticalAlign=middle;resizable=0;points=[];shadow=0;fontSize=10;container=0;" parent="uKcMFkma33SuD5zO_-8G-20" vertex="1" connectable="0">
          <mxGeometry x="-0.5512" y="-3" relative="1" as="geometry">
            <mxPoint as="offset" />
          </mxGeometry>
        </mxCell>
        <mxCell id="uKcMFkma33SuD5zO_-8G-35" value="image" style="swimlane;fontStyle=0;align=center;verticalAlign=top;childLayout=stackLayout;horizontal=1;startSize=26;horizontalStack=0;resizeParent=1;resizeLast=0;collapsible=1;marginBottom=0;rounded=0;shadow=0;strokeWidth=1;fontSize=10;container=0;" parent="WIyWlLk6GJQsqaUBKTNV-1" vertex="1">
          <mxGeometry x="550.91" y="399.49" width="131.02" height="75.51" as="geometry">
            <mxRectangle x="340" y="380" width="170" height="26" as="alternateBounds" />
          </mxGeometry>
        </mxCell>
        <mxCell id="uKcMFkma33SuD5zO_-8G-44" style="edgeStyle=none;shape=connector;rounded=0;orthogonalLoop=1;jettySize=auto;html=1;exitX=1;exitY=0.5;exitDx=0;exitDy=0;entryX=0;entryY=0.5;entryDx=0;entryDy=0;labelBackgroundColor=default;strokeColor=default;align=center;verticalAlign=middle;fontFamily=Helvetica;fontSize=10;fontColor=default;endArrow=none;endFill=0;shadow=0;" parent="WIyWlLk6GJQsqaUBKTNV-1" source="uKcMFkma33SuD5zO_-8G-42" target="uKcMFkma33SuD5zO_-8G-36" edge="1">
          <mxGeometry relative="1" as="geometry" />
        </mxCell>
        <mxCell id="vCiIIB5CHr5Q8YI4RMUH-13" value="1,1" style="edgeLabel;html=1;align=center;verticalAlign=middle;resizable=0;points=[];shadow=0;fontSize=10;container=0;" parent="uKcMFkma33SuD5zO_-8G-44" vertex="1" connectable="0">
          <mxGeometry x="0.3021" y="3" relative="1" as="geometry">
            <mxPoint as="offset" />
          </mxGeometry>
        </mxCell>
        <mxCell id="uKcMFkma33SuD5zO_-8G-42" value="&lt;p style=&quot;margin: 4px 0px 0px; text-align: center; font-size: 10px;&quot;&gt;have&lt;/p&gt;&lt;p style=&quot;margin: 4px 0px 0px; text-align: center; font-size: 10px;&quot;&gt;---&lt;/p&gt;&lt;p style=&quot;margin: 4px 0px 0px; text-align: center; font-size: 10px;&quot;&gt;Date&lt;/p&gt;" style="verticalAlign=top;align=left;overflow=fill;fontSize=10;fontFamily=Helvetica;html=1;whiteSpace=wrap;rounded=1;arcSize=50;shadow=0;container=0;" parent="WIyWlLk6GJQsqaUBKTNV-1" vertex="1">
          <mxGeometry x="443.6352279825109" y="370.18794835007174" width="57.32042473454091" height="47.51793400286944" as="geometry" />
        </mxCell>
        <mxCell id="uKcMFkma33SuD5zO_-8G-45" style="edgeStyle=none;shape=connector;rounded=0;orthogonalLoop=1;jettySize=auto;html=1;exitX=0;exitY=0.5;exitDx=0;exitDy=0;entryX=1;entryY=0.5;entryDx=0;entryDy=0;labelBackgroundColor=default;strokeColor=default;align=center;verticalAlign=middle;fontFamily=Helvetica;fontSize=10;fontColor=default;endArrow=none;endFill=0;shadow=0;" parent="WIyWlLk6GJQsqaUBKTNV-1" source="uKcMFkma33SuD5zO_-8G-41" target="uKcMFkma33SuD5zO_-8G-47" edge="1">
          <mxGeometry relative="1" as="geometry" />
        </mxCell>
        <mxCell id="vCiIIB5CHr5Q8YI4RMUH-6" value="1,n" style="edgeLabel;html=1;align=center;verticalAlign=middle;resizable=0;points=[];shadow=0;fontSize=10;container=0;" parent="uKcMFkma33SuD5zO_-8G-45" vertex="1" connectable="0">
          <mxGeometry x="-0.1653" y="3" relative="1" as="geometry">
            <mxPoint x="-3" y="-7" as="offset" />
          </mxGeometry>
        </mxCell>
        <mxCell id="uKcMFkma33SuD5zO_-8G-48" style="edgeStyle=none;shape=connector;rounded=0;orthogonalLoop=1;jettySize=auto;html=1;entryX=1;entryY=0.5;entryDx=0;entryDy=0;labelBackgroundColor=default;strokeColor=default;align=center;verticalAlign=middle;fontFamily=Helvetica;fontSize=10;fontColor=default;endArrow=none;endFill=0;exitX=0;exitY=0.5;exitDx=0;exitDy=0;shadow=0;" parent="WIyWlLk6GJQsqaUBKTNV-1" source="uKcMFkma33SuD5zO_-8G-47" target="uKcMFkma33SuD5zO_-8G-36" edge="1">
          <mxGeometry relative="1" as="geometry" />
        </mxCell>
        <mxCell id="vCiIIB5CHr5Q8YI4RMUH-14" value="1,1" style="edgeLabel;html=1;align=center;verticalAlign=middle;resizable=0;points=[];shadow=0;fontSize=10;container=0;" parent="uKcMFkma33SuD5zO_-8G-48" vertex="1" connectable="0">
          <mxGeometry x="0.3045" y="-1" relative="1" as="geometry">
            <mxPoint as="offset" />
          </mxGeometry>
        </mxCell>
        <mxCell id="uKcMFkma33SuD5zO_-8G-47" value="&lt;p style=&quot;margin: 4px 0px 0px; text-align: center; font-size: 10px;&quot;&gt;have&lt;/p&gt;&lt;p style=&quot;margin: 4px 0px 0px; text-align: center; font-size: 10px;&quot;&gt;---&lt;/p&gt;&lt;p style=&quot;margin: 4px 0px 0px; text-align: center; font-size: 10px;&quot;&gt;Date&lt;/p&gt;" style="verticalAlign=top;align=left;overflow=fill;fontSize=10;fontFamily=Helvetica;html=1;whiteSpace=wrap;rounded=1;arcSize=50;shadow=0;container=0;" parent="WIyWlLk6GJQsqaUBKTNV-1" vertex="1">
          <mxGeometry x="713.8600874453466" y="365.4361549497848" width="57.32042473454091" height="52.26972740315638" as="geometry" />
        </mxCell>
        <mxCell id="6wlXfqNhccEPpByuZ59E-4" value="User" style="swimlane;fontStyle=0;align=center;verticalAlign=top;childLayout=stackLayout;horizontal=1;startSize=26;horizontalStack=0;resizeParent=1;resizeLast=0;collapsible=1;marginBottom=0;rounded=0;shadow=0;strokeWidth=1;fontSize=10;container=0;" parent="WIyWlLk6GJQsqaUBKTNV-1" vertex="1">
          <mxGeometry x="8" y="424.0416068866571" width="131.01811367895067" height="87.77331420373028" as="geometry">
            <mxRectangle x="340" y="380" width="170" height="26" as="alternateBounds" />
          </mxGeometry>
        </mxCell>
        <mxCell id="6wlXfqNhccEPpByuZ59E-8" value="Budget" style="swimlane;fontStyle=0;align=center;verticalAlign=top;childLayout=stackLayout;horizontal=1;startSize=26;horizontalStack=0;resizeParent=1;resizeLast=0;collapsible=1;marginBottom=0;rounded=0;shadow=0;strokeWidth=1;fontSize=10;container=0;" parent="WIyWlLk6GJQsqaUBKTNV-1" vertex="1">
          <mxGeometry x="278.22" y="513.53" width="131.02" height="112.47" as="geometry">
            <mxRectangle x="340" y="380" width="170" height="26" as="alternateBounds" />
          </mxGeometry>
        </mxCell>
        <mxCell id="6wlXfqNhccEPpByuZ59E-12" style="rounded=0;orthogonalLoop=1;jettySize=auto;html=1;entryX=1;entryY=0.5;entryDx=0;entryDy=0;endArrow=none;endFill=0;exitX=0;exitY=0.5;exitDx=0;exitDy=0;shadow=0;fontSize=10;" parent="WIyWlLk6GJQsqaUBKTNV-1" source="6wlXfqNhccEPpByuZ59E-11" target="6wlXfqNhccEPpByuZ59E-27" edge="1">
          <mxGeometry relative="1" as="geometry">
            <mxPoint x="237.28169893816363" y="418.49784791965567" as="targetPoint" />
          </mxGeometry>
        </mxCell>
        <mxCell id="vCiIIB5CHr5Q8YI4RMUH-7" value="1,1" style="edgeLabel;html=1;align=center;verticalAlign=middle;resizable=0;points=[];shadow=0;fontSize=10;container=0;" parent="6wlXfqNhccEPpByuZ59E-12" vertex="1" connectable="0">
          <mxGeometry x="0.0503" y="-3" relative="1" as="geometry">
            <mxPoint as="offset" />
          </mxGeometry>
        </mxCell>
        <mxCell id="6wlXfqNhccEPpByuZ59E-28" style="rounded=0;orthogonalLoop=1;jettySize=auto;html=1;entryX=1;entryY=0.5;entryDx=0;entryDy=0;endArrow=none;endFill=0;shadow=0;fontSize=10;" parent="WIyWlLk6GJQsqaUBKTNV-1" source="6wlXfqNhccEPpByuZ59E-27" target="6wlXfqNhccEPpByuZ59E-5" edge="1">
          <mxGeometry relative="1" as="geometry" />
        </mxCell>
        <mxCell id="vCiIIB5CHr5Q8YI4RMUH-8" value="1,n" style="edgeLabel;html=1;align=center;verticalAlign=middle;resizable=0;points=[];shadow=0;fontSize=10;container=0;" parent="6wlXfqNhccEPpByuZ59E-28" vertex="1" connectable="0">
          <mxGeometry x="0.373" y="2" relative="1" as="geometry">
            <mxPoint as="offset" />
          </mxGeometry>
        </mxCell>
        <mxCell id="6wlXfqNhccEPpByuZ59E-27" value="&lt;p style=&quot;margin: 4px 0px 0px; text-align: center; font-size: 10px;&quot;&gt;Found&lt;/p&gt;&lt;p style=&quot;margin: 4px 0px 0px; text-align: center; font-size: 10px;&quot;&gt;---&lt;/p&gt;&lt;p style=&quot;margin: 4px 0px 0px; text-align: center; font-size: 10px;&quot;&gt;Date&lt;/p&gt;" style="verticalAlign=top;align=left;overflow=fill;fontSize=10;fontFamily=Helvetica;html=1;whiteSpace=wrap;rounded=1;arcSize=50;shadow=0;container=0;" parent="WIyWlLk6GJQsqaUBKTNV-1" vertex="1">
          <mxGeometry x="173.4103685196752" y="386.8192252510761" width="57.32042473454091" height="47.51793400286944" as="geometry" />
        </mxCell>
        <mxCell id="6wlXfqNhccEPpByuZ59E-31" style="edgeStyle=none;shape=connector;rounded=0;orthogonalLoop=1;jettySize=auto;html=1;entryX=0;entryY=0.5;entryDx=0;entryDy=0;labelBackgroundColor=default;strokeColor=default;align=center;verticalAlign=middle;fontFamily=Helvetica;fontSize=10;fontColor=default;endArrow=none;endFill=0;exitX=1;exitY=0.5;exitDx=0;exitDy=0;shadow=0;" parent="WIyWlLk6GJQsqaUBKTNV-1" source="6wlXfqNhccEPpByuZ59E-29" target="6wlXfqNhccEPpByuZ59E-9" edge="1">
          <mxGeometry relative="1" as="geometry">
            <mxPoint x="245.47033104309804" y="532.1713055954089" as="sourcePoint" />
          </mxGeometry>
        </mxCell>
        <mxCell id="vCiIIB5CHr5Q8YI4RMUH-10" value="1,1" style="edgeLabel;html=1;align=center;verticalAlign=middle;resizable=0;points=[];shadow=0;fontSize=10;container=0;" parent="6wlXfqNhccEPpByuZ59E-31" vertex="1" connectable="0">
          <mxGeometry x="0.5021" y="5" relative="1" as="geometry">
            <mxPoint x="-8" y="1" as="offset" />
          </mxGeometry>
        </mxCell>
        <mxCell id="6wlXfqNhccEPpByuZ59E-29" value="&lt;p style=&quot;margin: 4px 0px 0px; text-align: center; font-size: 10px;&quot;&gt;supply&lt;/p&gt;&lt;p style=&quot;margin: 4px 0px 0px; text-align: center; font-size: 10px;&quot;&gt;---&lt;/p&gt;&lt;p style=&quot;margin: 4px 0px 0px; text-align: center; font-size: 10px;&quot;&gt;Date&lt;/p&gt;" style="verticalAlign=top;align=left;overflow=fill;fontSize=10;fontFamily=Helvetica;html=1;whiteSpace=wrap;rounded=1;arcSize=50;shadow=0;container=0;" parent="WIyWlLk6GJQsqaUBKTNV-1" vertex="1">
          <mxGeometry x="181.59900062460963" y="489.77474892395986" width="57.32042473454091" height="47.51793400286944" as="geometry" />
        </mxCell>
        <mxCell id="6wlXfqNhccEPpByuZ59E-30" style="edgeStyle=none;shape=connector;rounded=0;orthogonalLoop=1;jettySize=auto;html=1;entryX=0;entryY=0.5;entryDx=0;entryDy=0;labelBackgroundColor=default;strokeColor=default;align=center;verticalAlign=middle;fontFamily=Helvetica;fontSize=10;fontColor=default;endArrow=none;endFill=0;exitX=1;exitY=0.5;exitDx=0;exitDy=0;shadow=0;" parent="WIyWlLk6GJQsqaUBKTNV-1" source="6wlXfqNhccEPpByuZ59E-13" target="6wlXfqNhccEPpByuZ59E-29" edge="1">
          <mxGeometry relative="1" as="geometry" />
        </mxCell>
        <mxCell id="vCiIIB5CHr5Q8YI4RMUH-9" value="1,1" style="edgeLabel;html=1;align=center;verticalAlign=middle;resizable=0;points=[];shadow=0;fontSize=10;container=0;" parent="6wlXfqNhccEPpByuZ59E-30" vertex="1" connectable="0">
          <mxGeometry x="-0.4298" y="-2" relative="1" as="geometry">
            <mxPoint as="offset" />
          </mxGeometry>
        </mxCell>
        <mxCell id="6wlXfqNhccEPpByuZ59E-34" style="edgeStyle=none;shape=connector;rounded=0;orthogonalLoop=1;jettySize=auto;html=1;exitX=1;exitY=0.5;exitDx=0;exitDy=0;labelBackgroundColor=default;strokeColor=default;align=center;verticalAlign=middle;fontFamily=Helvetica;fontSize=10;fontColor=default;endArrow=none;endFill=0;shadow=0;" parent="WIyWlLk6GJQsqaUBKTNV-1" source="uKcMFkma33SuD5zO_-8G-11" target="uKcMFkma33SuD5zO_-8G-42" edge="1">
          <mxGeometry relative="1" as="geometry" />
        </mxCell>
        <mxCell id="vCiIIB5CHr5Q8YI4RMUH-5" value="1,n" style="edgeLabel;html=1;align=center;verticalAlign=middle;resizable=0;points=[];shadow=0;fontSize=10;container=0;" parent="6wlXfqNhccEPpByuZ59E-34" vertex="1" connectable="0">
          <mxGeometry x="-0.3203" y="-1" relative="1" as="geometry">
            <mxPoint as="offset" />
          </mxGeometry>
        </mxCell>
        <mxCell id="hG3oxJkNT1ENptjuVg6Q-0" value="&lt;p style=&quot;margin: 4px 0px 0px; text-align: center; font-size: 10px;&quot;&gt;Is&lt;/p&gt;&lt;p style=&quot;margin: 4px 0px 0px; text-align: center; font-size: 10px;&quot;&gt;---&lt;/p&gt;" style="verticalAlign=top;align=left;overflow=fill;fontSize=10;fontFamily=Helvetica;html=1;whiteSpace=wrap;rounded=1;arcSize=50;shadow=0;container=0;" parent="WIyWlLk6GJQsqaUBKTNV-1" vertex="1">
          <mxGeometry x="998.0035602748283" y="217.99235294117648" width="57.32042473454091" height="52.26972740315638" as="geometry" />
        </mxCell>
        <mxCell id="hG3oxJkNT1ENptjuVg6Q-4" style="rounded=0;orthogonalLoop=1;jettySize=auto;html=1;exitX=1;exitY=0.25;exitDx=0;exitDy=0;entryX=0;entryY=0.5;entryDx=0;entryDy=0;endArrow=none;endFill=0;shadow=0;fontSize=10;" parent="WIyWlLk6GJQsqaUBKTNV-1" source="zkfFHV4jXpPFQw0GAbJ--17" target="hG3oxJkNT1ENptjuVg6Q-0" edge="1">
          <mxGeometry relative="1" as="geometry" />
        </mxCell>
        <mxCell id="hG3oxJkNT1ENptjuVg6Q-5" value="1,1" style="edgeLabel;html=1;align=center;verticalAlign=middle;resizable=0;points=[];shadow=0;fontSize=10;container=0;" parent="hG3oxJkNT1ENptjuVg6Q-4" vertex="1" connectable="0">
          <mxGeometry x="-0.4971" y="-1" relative="1" as="geometry">
            <mxPoint y="1" as="offset" />
          </mxGeometry>
        </mxCell>
        <mxCell id="hG3oxJkNT1ENptjuVg6Q-6" style="rounded=0;orthogonalLoop=1;jettySize=auto;html=1;entryX=0.75;entryY=1;entryDx=0;entryDy=0;endArrow=none;endFill=0;shadow=0;fontSize=10;" parent="WIyWlLk6GJQsqaUBKTNV-1" source="hG3oxJkNT1ENptjuVg6Q-1" target="hG3oxJkNT1ENptjuVg6Q-0" edge="1">
          <mxGeometry relative="1" as="geometry" />
        </mxCell>
        <mxCell id="hG3oxJkNT1ENptjuVg6Q-7" value="1,n" style="edgeLabel;html=1;align=center;verticalAlign=middle;resizable=0;points=[];fontSize=10;fontFamily=Helvetica;fontColor=default;shadow=0;container=0;" parent="hG3oxJkNT1ENptjuVg6Q-6" vertex="1" connectable="0">
          <mxGeometry x="-0.4049" y="5" relative="1" as="geometry">
            <mxPoint as="offset" />
          </mxGeometry>
        </mxCell>
        <mxCell id="hG3oxJkNT1ENptjuVg6Q-1" value="group" style="swimlane;fontStyle=0;align=center;verticalAlign=top;childLayout=stackLayout;horizontal=1;startSize=26;horizontalStack=0;resizeParent=1;resizeLast=0;collapsible=1;marginBottom=0;rounded=0;shadow=0;strokeWidth=1;fontSize=10;container=0;" parent="WIyWlLk6GJQsqaUBKTNV-1" vertex="1">
          <mxGeometry x="978" y="316" width="170.32" height="75" as="geometry">
            <mxRectangle x="340" y="380" width="170" height="26" as="alternateBounds" />
          </mxGeometry>
        </mxCell>
        <mxCell id="hG3oxJkNT1ENptjuVg6Q-2" value="id_group" style="text;align=left;verticalAlign=top;spacingLeft=4;spacingRight=4;overflow=hidden;rotatable=0;points=[[0,0.5],[1,0.5]];portConstraint=eastwest;shadow=0;fontSize=10;container=0;" parent="hG3oxJkNT1ENptjuVg6Q-1" vertex="1">
          <mxGeometry y="26" width="170.32" height="20.591104734576753" as="geometry" />
        </mxCell>
        <mxCell id="hG3oxJkNT1ENptjuVg6Q-3" value="group" style="text;align=left;verticalAlign=top;spacingLeft=4;spacingRight=4;overflow=hidden;rotatable=0;points=[[0,0.5],[1,0.5]];portConstraint=eastwest;rounded=0;shadow=0;html=0;fontSize=10;container=0;" parent="hG3oxJkNT1ENptjuVg6Q-1" vertex="1">
          <mxGeometry y="46.59110473457675" width="170.32" height="22.17503586800574" as="geometry" />
        </mxCell>
        <mxCell id="zkfFHV4jXpPFQw0GAbJ--14" value="id_address" style="text;align=left;verticalAlign=top;spacingLeft=4;spacingRight=4;overflow=hidden;rotatable=0;points=[[0,0.5],[1,0.5]];portConstraint=eastwest;shadow=0;fontSize=10;container=0;" parent="WIyWlLk6GJQsqaUBKTNV-1" vertex="1">
          <mxGeometry x="550.9063085571518" y="248.88235294117646" width="131.01811367895067" height="20.591104734576753" as="geometry" />
        </mxCell>
        <mxCell id="zkfFHV4jXpPFQw0GAbJ--3" value="street" style="text;align=left;verticalAlign=top;spacingLeft=4;spacingRight=4;overflow=hidden;rotatable=0;points=[[0,0.5],[1,0.5]];portConstraint=eastwest;rounded=0;shadow=0;html=0;fontSize=10;container=0;" parent="WIyWlLk6GJQsqaUBKTNV-1" vertex="1">
          <mxGeometry x="550.9063085571518" y="269.4734576757532" width="131.01811367895067" height="20.591104734576753" as="geometry" />
        </mxCell>
        <mxCell id="zkfFHV4jXpPFQw0GAbJ--5" value="street_num" style="text;align=left;verticalAlign=top;spacingLeft=4;spacingRight=4;overflow=hidden;rotatable=0;points=[[0,0.5],[1,0.5]];portConstraint=eastwest;shadow=0;fontSize=10;container=0;" parent="WIyWlLk6GJQsqaUBKTNV-1" vertex="1">
          <mxGeometry x="550.9063085571518" y="290.06456241033" width="131.01811367895067" height="20.591104734576753" as="geometry" />
        </mxCell>
        <mxCell id="zkfFHV4jXpPFQw0GAbJ--19" value="id_owner" style="text;align=left;verticalAlign=top;spacingLeft=4;spacingRight=4;overflow=hidden;rotatable=0;points=[[0,0.5],[1,0.5]];portConstraint=eastwest;rounded=0;shadow=0;html=0;fontSize=10;container=0;" parent="WIyWlLk6GJQsqaUBKTNV-1" vertex="1">
          <mxGeometry x="819.4934415990006" y="229.08321377331418" width="131.01811367895067" height="20.591104734576756" as="geometry" />
        </mxCell>
        <mxCell id="uKcMFkma33SuD5zO_-8G-13" value="address" style="text;align=left;verticalAlign=top;spacingLeft=4;spacingRight=4;overflow=hidden;rotatable=0;points=[[0,0.5],[1,0.5]];portConstraint=eastwest;rounded=0;shadow=0;html=0;fontSize=10;container=0;" parent="WIyWlLk6GJQsqaUBKTNV-1" vertex="1">
          <mxGeometry x="819.4934415990006" y="249.67431850789094" width="131.01811367895067" height="20.591104734576756" as="geometry" />
        </mxCell>
        <mxCell id="uKcMFkma33SuD5zO_-8G-22" value="mail" style="text;align=left;verticalAlign=top;spacingLeft=4;spacingRight=4;overflow=hidden;rotatable=0;points=[[0,0.5],[1,0.5]];portConstraint=eastwest;rounded=0;shadow=0;html=0;fontSize=10;container=0;" parent="WIyWlLk6GJQsqaUBKTNV-1" vertex="1">
          <mxGeometry x="819.4934415990006" y="270.2654232424677" width="131.01811367895067" height="20.591104734576756" as="geometry" />
        </mxCell>
        <mxCell id="uKcMFkma33SuD5zO_-8G-27" value="telephone" style="text;align=left;verticalAlign=top;spacingLeft=4;spacingRight=4;overflow=hidden;rotatable=0;points=[[0,0.5],[1,0.5]];portConstraint=eastwest;rounded=0;shadow=0;html=0;fontSize=10;container=0;" parent="WIyWlLk6GJQsqaUBKTNV-1" vertex="1">
          <mxGeometry x="819.4934415990006" y="290.8565279770445" width="131.01811367895067" height="20.591104734576756" as="geometry" />
        </mxCell>
        <mxCell id="uKcMFkma33SuD5zO_-8G-41" value="image" style="text;align=left;verticalAlign=top;spacingLeft=4;spacingRight=4;overflow=hidden;rotatable=0;points=[[0,0.5],[1,0.5]];portConstraint=eastwest;rounded=0;shadow=0;html=0;fontSize=10;container=0;" parent="WIyWlLk6GJQsqaUBKTNV-1" vertex="1">
          <mxGeometry x="819.4934415990006" y="311.4476327116212" width="131.01811367895067" height="20.591104734576756" as="geometry" />
        </mxCell>
        <mxCell id="6wlXfqNhccEPpByuZ59E-3" value="owner type" style="text;align=left;verticalAlign=top;spacingLeft=4;spacingRight=4;overflow=hidden;rotatable=0;points=[[0,0.5],[1,0.5]];portConstraint=eastwest;rounded=0;shadow=0;html=0;fontSize=10;container=0;" parent="WIyWlLk6GJQsqaUBKTNV-1" vertex="1">
          <mxGeometry x="819.4934415990006" y="332.03873744619796" width="131.01811367895067" height="20.591104734576756" as="geometry" />
        </mxCell>
        <mxCell id="uKcMFkma33SuD5zO_-8G-36" value="id_image" style="text;align=left;verticalAlign=top;spacingLeft=4;spacingRight=4;overflow=hidden;rotatable=0;points=[[0,0.5],[1,0.5]];portConstraint=eastwest;shadow=0;fontSize=10;container=0;" parent="WIyWlLk6GJQsqaUBKTNV-1" vertex="1">
          <mxGeometry x="550.9063085571518" y="425.4906743185079" width="131.01811367895067" height="20.591104734576753" as="geometry" />
        </mxCell>
        <mxCell id="uKcMFkma33SuD5zO_-8G-37" value="picture" style="text;align=left;verticalAlign=top;spacingLeft=4;spacingRight=4;overflow=hidden;rotatable=0;points=[[0,0.5],[1,0.5]];portConstraint=eastwest;rounded=0;shadow=0;html=0;fontSize=10;container=0;" parent="WIyWlLk6GJQsqaUBKTNV-1" vertex="1">
          <mxGeometry x="550.9063085571518" y="446.08177905308463" width="131.01811367895067" height="22.175035868005736" as="geometry" />
        </mxCell>
        <mxCell id="6wlXfqNhccEPpByuZ59E-5" value="id_user" style="text;align=left;verticalAlign=top;spacingLeft=4;spacingRight=4;overflow=hidden;rotatable=0;points=[[0,0.5],[1,0.5]];portConstraint=eastwest;shadow=0;fontSize=10;container=0;" parent="WIyWlLk6GJQsqaUBKTNV-1" vertex="1">
          <mxGeometry x="8" y="450.0416068866571" width="131.01811367895067" height="20.591104734576756" as="geometry" />
        </mxCell>
        <mxCell id="6wlXfqNhccEPpByuZ59E-6" value="username" style="text;align=left;verticalAlign=top;spacingLeft=4;spacingRight=4;overflow=hidden;rotatable=0;points=[[0,0.5],[1,0.5]];portConstraint=eastwest;rounded=0;shadow=0;html=0;fontSize=10;container=0;" parent="WIyWlLk6GJQsqaUBKTNV-1" vertex="1">
          <mxGeometry x="8" y="470.63271162123385" width="131.01811367895067" height="20.591104734576756" as="geometry" />
        </mxCell>
        <mxCell id="6wlXfqNhccEPpByuZ59E-13" value="budget" style="text;align=left;verticalAlign=top;spacingLeft=4;spacingRight=4;overflow=hidden;rotatable=0;points=[[0,0.5],[1,0.5]];portConstraint=eastwest;rounded=0;shadow=0;html=0;fontSize=10;container=0;" parent="WIyWlLk6GJQsqaUBKTNV-1" vertex="1">
          <mxGeometry x="8" y="491.22" width="131.02" height="23.78" as="geometry" />
        </mxCell>
        <mxCell id="6wlXfqNhccEPpByuZ59E-9" value="id_budget" style="text;align=left;verticalAlign=top;spacingLeft=4;spacingRight=4;overflow=hidden;rotatable=0;points=[[0,0.5],[1,0.5]];portConstraint=eastwest;shadow=0;fontSize=10;container=0;" parent="WIyWlLk6GJQsqaUBKTNV-1" vertex="1">
          <mxGeometry x="278.2248594628357" y="539.5337159253945" width="131.01811367895067" height="20.59110473457676" as="geometry" />
        </mxCell>
        <mxCell id="6wlXfqNhccEPpByuZ59E-14" value="rent" style="text;align=left;verticalAlign=top;spacingLeft=4;spacingRight=4;overflow=hidden;rotatable=0;points=[[0,0.5],[1,0.5]];portConstraint=eastwest;rounded=0;shadow=0;html=0;fontSize=10;container=0;" parent="WIyWlLk6GJQsqaUBKTNV-1" vertex="1">
          <mxGeometry x="278.2248594628357" y="560.1248206599713" width="131.01811367895067" height="20.59110473457676" as="geometry" />
        </mxCell>
        <mxCell id="6wlXfqNhccEPpByuZ59E-32" value="new_supply" style="text;align=left;verticalAlign=top;spacingLeft=4;spacingRight=4;overflow=hidden;rotatable=0;points=[[0,0.5],[1,0.5]];portConstraint=eastwest;rounded=0;shadow=0;html=0;fontSize=10;container=0;" parent="WIyWlLk6GJQsqaUBKTNV-1" vertex="1">
          <mxGeometry x="278.2248594628357" y="580.7159253945481" width="131.01811367895067" height="20.59110473457676" as="geometry" />
        </mxCell>
        <mxCell id="6wlXfqNhccEPpByuZ59E-33" value="transport" style="text;align=left;verticalAlign=top;spacingLeft=4;spacingRight=4;overflow=hidden;rotatable=0;points=[[0,0.5],[1,0.5]];portConstraint=eastwest;rounded=0;shadow=0;html=0;fontSize=10;container=0;" parent="WIyWlLk6GJQsqaUBKTNV-1" vertex="1">
          <mxGeometry x="278.2248594628357" y="601.3070301291248" width="131.01811367895067" height="20.59110473457676" as="geometry" />
        </mxCell>
        <mxCell id="zkfFHV4jXpPFQw0GAbJ--0" value="Appartment" style="swimlane;fontStyle=0;align=center;verticalAlign=top;childLayout=stackLayout;horizontal=1;startSize=26;horizontalStack=0;resizeParent=1;resizeLast=0;collapsible=1;marginBottom=0;rounded=0;shadow=0;strokeWidth=1;fontSize=10;container=0;" parent="WIyWlLk6GJQsqaUBKTNV-1" vertex="1">
          <mxGeometry x="281" y="202.95" width="131.02" height="193.05" as="geometry">
            <mxRectangle x="230" y="140" width="160" height="26" as="alternateBounds" />
          </mxGeometry>
        </mxCell>
        <mxCell id="zkfFHV4jXpPFQw0GAbJ--1" value="id_appart" style="text;align=left;verticalAlign=top;spacingLeft=4;spacingRight=4;overflow=hidden;rotatable=0;points=[[0,0.5],[1,0.5]];portConstraint=eastwest;shadow=0;fontSize=10;container=0;" parent="zkfFHV4jXpPFQw0GAbJ--0" vertex="1">
          <mxGeometry y="26" width="131.02" height="20.591104734576753" as="geometry" />
        </mxCell>
        <mxCell id="zkfFHV4jXpPFQw0GAbJ--2" value="address" style="text;align=left;verticalAlign=top;spacingLeft=4;spacingRight=4;overflow=hidden;rotatable=0;points=[[0,0.5],[1,0.5]];portConstraint=eastwest;rounded=0;shadow=0;html=0;fontSize=10;container=0;" parent="zkfFHV4jXpPFQw0GAbJ--0" vertex="1">
          <mxGeometry y="46.59110473457675" width="131.02" height="20.591104734576753" as="geometry" />
        </mxCell>
        <mxCell id="oFJWuJIvr5pNURfF1LZ2-0" value="rent" style="text;align=left;verticalAlign=top;spacingLeft=4;spacingRight=4;overflow=hidden;rotatable=0;points=[[0,0.5],[1,0.5]];portConstraint=eastwest;shadow=0;fontSize=10;container=0;" parent="zkfFHV4jXpPFQw0GAbJ--0" vertex="1">
          <mxGeometry y="67.1822094691535" width="131.02" height="20.591104734576753" as="geometry" />
        </mxCell>
        <mxCell id="oFJWuJIvr5pNURfF1LZ2-1" value="nb_rooms" style="text;align=left;verticalAlign=top;spacingLeft=4;spacingRight=4;overflow=hidden;rotatable=0;points=[[0,0.5],[1,0.5]];portConstraint=eastwest;shadow=0;fontSize=10;container=0;" parent="zkfFHV4jXpPFQw0GAbJ--0" vertex="1">
          <mxGeometry y="87.77331420373025" width="131.02" height="20.591104734576753" as="geometry" />
        </mxCell>
        <mxCell id="uKcMFkma33SuD5zO_-8G-11" value="area_m2" style="text;align=left;verticalAlign=top;spacingLeft=4;spacingRight=4;overflow=hidden;rotatable=0;points=[[0,0.5],[1,0.5]];portConstraint=eastwest;shadow=0;fontSize=10;container=0;" parent="zkfFHV4jXpPFQw0GAbJ--0" vertex="1">
          <mxGeometry y="108.36441893830701" width="131.02" height="20.591104734576753" as="geometry" />
        </mxCell>
        <mxCell id="uKcMFkma33SuD5zO_-8G-12" value="date_availability" style="text;align=left;verticalAlign=top;spacingLeft=4;spacingRight=4;overflow=hidden;rotatable=0;points=[[0,0.5],[1,0.5]];portConstraint=eastwest;shadow=0;fontSize=10;container=0;" parent="zkfFHV4jXpPFQw0GAbJ--0" vertex="1">
          <mxGeometry y="128.95552367288377" width="131.02" height="20.591104734576753" as="geometry" />
        </mxCell>
        <mxCell id="uKcMFkma33SuD5zO_-8G-39" value="image" style="text;align=left;verticalAlign=top;spacingLeft=4;spacingRight=4;overflow=hidden;rotatable=0;points=[[0,0.5],[1,0.5]];portConstraint=eastwest;shadow=0;fontSize=10;container=0;" parent="zkfFHV4jXpPFQw0GAbJ--0" vertex="1">
          <mxGeometry y="149.54662840746053" width="131.02" height="20.591104734576753" as="geometry" />
        </mxCell>
        <mxCell id="6wlXfqNhccEPpByuZ59E-11" value="found_by" style="text;align=left;verticalAlign=top;spacingLeft=4;spacingRight=4;overflow=hidden;rotatable=0;points=[[0,0.5],[1,0.5]];portConstraint=eastwest;shadow=0;fontSize=10;container=0;" parent="zkfFHV4jXpPFQw0GAbJ--0" vertex="1">
          <mxGeometry y="170.1377331420373" width="131.02" height="20.591104734576753" as="geometry" />
        </mxCell>
      </root>
    </mxGraphModel>
  </diagram>
</mxfile>
